<svg xmlns="http://www.w3.org/2000/svg" xmlns:xlink="http://www.w3.org/1999/xlink" width="186.3" height="245.23" viewBox="0 0 186.3 245.23">
  <defs>
    <style>
      .cls-1 {
        isolation: isolate;
      }

      .cls-2 {
        fill: #55d899;
      }

      .cls-3 {
        fill: #9f7e69;
      }

      .cls-4 {
        fill: #efddcf;
        mix-blend-mode: multiply;
      }

      .cls-5 {
        fill: url(#radial-gradient);
      }

      .cls-6 {
        fill: url(#radial-gradient-2);
      }

      .cls-7 {
        fill: url(#radial-gradient-3);
      }

      .cls-8 {
        fill: url(#radial-gradient-4);
      }

      .cls-9 {
        fill: url(#radial-gradient-5);
      }

      .cls-10 {
        fill: url(#radial-gradient-6);
      }

      .cls-11 {
        fill: #d2bba0;
      }
    </style>
    <radialGradient id="radial-gradient" cx="249.11" cy="361.81" r="36.37" gradientUnits="userSpaceOnUse">
      <stop offset="0" stop-color="#f0f5f0"/>
      <stop offset="1" stop-color="#d7e1df"/>
    </radialGradient>
    <radialGradient id="radial-gradient-2" cx="249.11" cy="355.6" r="36.37" xlink:href="#radial-gradient"/>
    <radialGradient id="radial-gradient-3" cx="309.83" cy="361.81" r="36.37" xlink:href="#radial-gradient"/>
    <radialGradient id="radial-gradient-4" cx="309.83" cy="355.6" r="36.37" xlink:href="#radial-gradient"/>
    <radialGradient id="radial-gradient-5" cx="222.53" cy="422.27" r="36.19" gradientTransform="translate(501.13 778.92) rotate(-179.89)" xlink:href="#radial-gradient"/>
    <radialGradient id="radial-gradient-6" cx="222.44" cy="416.78" r="36.19" gradientTransform="translate(501.13 778.92) rotate(-179.89)" xlink:href="#radial-gradient"/>
  </defs>
  <title>siteshakeup_shake</title>
  <g class="cls-1">
    <g id="Layer_1" data-name="Layer 1">
      <g>
        <path class="cls-2" d="M258.05,313.39q42.43-62.94,84.86-125.87l-9.12,2.39,49.82,37.9c6.84,5.21,13.47-6.37,6.73-11.51l-49.83-37.9c-3-2.3-7.28-.33-9.11,2.39L246.55,306.66c-4.82,7.15,6.73,13.81,11.5,6.73Z" transform="translate(-206.85 -177.39)"/>
        <g>
          <path class="cls-3" d="M214.88,284.79H344.06L325.17,422.61H231Q222.93,353.7,214.88,284.79Z" transform="translate(-206.85 -177.39)"/>
          <path class="cls-4" d="M215.44,288.19h8a3.68,3.68,0,0,0-.1,1.25s2.25,18.63,5,41.94c3.63,30.43,8.16,68.87,9.76,84.36.37,3.65.58,6,.58,6.73h-8c0-3.7-5.86-53.5-10.34-91.09-2.78-23.31-5-41.94-5-41.94A3.68,3.68,0,0,1,215.44,288.19Z" transform="translate(-206.85 -177.39)"/>
          <path class="cls-4" d="M343.94,283.48h-9.8a3.15,3.15,0,0,1,.13,1.31s-2.77,19.29-6.19,43.45c-5.51,38.95-12.71,90.54-12.71,94.37h9.8c0-3.83,7.2-55.42,12.71-94.37,3.41-24.16,6.18-43.45,6.18-43.45A3.33,3.33,0,0,0,343.94,283.48Z" transform="translate(-206.85 -177.39)"/>
          <g>
            <g>
              <g>
                <path class="cls-5" d="M255.71,411.9a5.56,5.56,0,0,0,4.83-6.21L250,320.8c-5.3-1.56-9.86-4.56-12.35-9.12l11.87,95.38A5.56,5.56,0,0,0,255.71,411.9Z" transform="translate(-206.85 -177.39)"/>
                <path class="cls-6" d="M242.51,305.51a5.57,5.57,0,0,0-4.84,6.21l10.56,84.89c5.3,1.56,9.87,4.55,12.35,9.12l-11.86-95.38A5.57,5.57,0,0,0,242.51,305.51Z" transform="translate(-206.85 -177.39)"/>
              </g>
              <g>
                <path class="cls-7" d="M303.23,411.9a5.56,5.56,0,0,1-4.83-6.21L309,320.8c5.3-1.56,9.86-4.56,12.35-9.12l-11.87,95.38A5.56,5.56,0,0,1,303.23,411.9Z" transform="translate(-206.85 -177.39)"/>
                <path class="cls-8" d="M316.43,305.51a5.57,5.57,0,0,1,4.84,6.21l-10.56,84.89c-5.3,1.56-9.87,4.55-12.36,9.12l11.87-95.38A5.57,5.57,0,0,1,316.43,305.51Z" transform="translate(-206.85 -177.39)"/>
              </g>
            </g>
            <g>
              <path class="cls-9" d="M279.32,305.36a5.56,5.56,0,0,1,5.58,5.55l.21,85.54c-5.07,2.22-9.22,5.76-11.11,10.61l-.23-96.12A5.56,5.56,0,0,1,279.32,305.36Z" transform="translate(-206.85 -177.39)"/>
              <path class="cls-10" d="M279.62,412.56A5.56,5.56,0,0,1,274,407l-.21-85.54c5.07-2.22,9.22-5.77,11.11-10.61l.23,96.12A5.57,5.57,0,0,1,279.62,412.56Z" transform="translate(-206.85 -177.39)"/>
            </g>
          </g>
          <g>
            <path class="cls-11" d="M329.38,245.51a26,26,0,0,0-30.48-25.64,18.43,18.43,0,0,0-16.19-13.53l0,23.35v5.25a24.61,24.61,0,0,1,1.35,3.78,24.61,24.61,0,0,0-1.35-3.78V298.3A26,26,0,0,0,319,295.41a25.89,25.89,0,0,0,7.76,2,25.29,25.29,0,0,0,2.63.14,26,26,0,0,0,0-52.06Z" transform="translate(-206.85 -177.39)"/>
            <path class="cls-11" d="M281.13,206.27a18.43,18.43,0,0,0-17.78,13.6,26,26,0,0,0-30.47,25.64,26,26,0,1,0,0,52.06,25.25,25.25,0,0,0,2.62-.14,25.89,25.89,0,0,0,7.76-2,26,26,0,0,0,37.87,1.52c.26-.26.5-.54.75-.81-.25.27-.49.55-.75.81.48.47,1,.93,1.51,1.37v-3h0V234.94h0v-5.25h0l0-23.35C282.19,206.3,281.66,206.27,281.13,206.27Zm-.28,53.23c.1-.15.18-.32.28-.47.09.15.18.32.28.47-.1.09-.19.19-.28.28C281,259.69,280.94,259.59,280.85,259.5Z" transform="translate(-206.85 -177.39)"/>
          </g>
        </g>
      </g>
    </g>
  </g>
</svg>
